<mxfile host="65bd71144e">
    <diagram id="hiPiY62O0oqvtFkq5nra" name="ページ1">
        <mxGraphModel dx="1165" dy="569" grid="1" gridSize="10" guides="1" tooltips="1" connect="1" arrows="1" fold="1" page="1" pageScale="1" pageWidth="827" pageHeight="1169" math="0" shadow="0">
            <root>
                <mxCell id="0"/>
                <mxCell id="1" parent="0"/>
                <mxCell id="2" value="リバーシ&lt;br&gt;アプリケーション" style="rounded=0;whiteSpace=wrap;html=1;align=center;verticalAlign=top;fillColor=none;" vertex="1" parent="1">
                    <mxGeometry x="200" y="110" width="440" height="570" as="geometry"/>
                </mxCell>
                <mxCell id="26" value="" style="rounded=0;whiteSpace=wrap;html=1;fillColor=none;strokeColor=#FF9999;strokeWidth=5;" vertex="1" parent="1">
                    <mxGeometry x="215" y="260" width="410" height="190" as="geometry"/>
                </mxCell>
                <mxCell id="3" value="プレイヤー" style="shape=umlActor;verticalLabelPosition=bottom;verticalAlign=top;html=1;fillColor=none;" vertex="1" parent="1">
                    <mxGeometry x="70" y="220" width="30" height="60" as="geometry"/>
                </mxCell>
                <mxCell id="5" value="対戦する" style="ellipse;whiteSpace=wrap;html=1;fillColor=none;" vertex="1" parent="1">
                    <mxGeometry x="230" y="260" width="140" height="70" as="geometry"/>
                </mxCell>
                <mxCell id="7" value="" style="endArrow=none;html=1;entryX=0;entryY=0.5;entryDx=0;entryDy=0;" edge="1" parent="1" source="3" target="5">
                    <mxGeometry width="50" height="50" relative="1" as="geometry">
                        <mxPoint x="110" y="250" as="sourcePoint"/>
                        <mxPoint x="200" y="180" as="targetPoint"/>
                    </mxGeometry>
                </mxCell>
                <mxCell id="8" value="・対戦を開始する&lt;br&gt;・盤面を見る&lt;br&gt;・石を打つ&lt;br&gt;・勝敗を確認する" style="shape=note;whiteSpace=wrap;html=1;backgroundOutline=1;darkOpacity=0.05;fillColor=#ffe6cc;strokeColor=#d79b00;align=left;" vertex="1" parent="1">
                    <mxGeometry x="414" y="160" width="126" height="100" as="geometry"/>
                </mxCell>
                <mxCell id="9" value="" style="endArrow=none;dashed=1;html=1;exitX=1;exitY=0;exitDx=0;exitDy=0;entryX=0;entryY=1;entryDx=0;entryDy=0;entryPerimeter=0;" edge="1" parent="1" source="5" target="8">
                    <mxGeometry width="50" height="50" relative="1" as="geometry">
                        <mxPoint x="330" y="240" as="sourcePoint"/>
                        <mxPoint x="380" y="190" as="targetPoint"/>
                    </mxGeometry>
                </mxCell>
                <mxCell id="10" value="自分の&lt;br&gt;過去の対戦結果を&lt;br&gt;確認する" style="ellipse;whiteSpace=wrap;html=1;fillColor=none;" vertex="1" parent="1">
                    <mxGeometry x="220" y="360" width="140" height="70" as="geometry"/>
                </mxCell>
                <mxCell id="11" value="会員登録・&lt;br&gt;ログインする" style="ellipse;whiteSpace=wrap;html=1;fillColor=none;" vertex="1" parent="1">
                    <mxGeometry x="220" y="175" width="140" height="70" as="geometry"/>
                </mxCell>
                <mxCell id="12" value="" style="endArrow=none;html=1;entryX=0;entryY=0;entryDx=0;entryDy=0;" edge="1" parent="1" source="3" target="10">
                    <mxGeometry width="50" height="50" relative="1" as="geometry">
                        <mxPoint x="120" y="230" as="sourcePoint"/>
                        <mxPoint x="240" y="364.44" as="targetPoint"/>
                    </mxGeometry>
                </mxCell>
                <mxCell id="13" value="" style="endArrow=none;html=1;entryX=0;entryY=0.5;entryDx=0;entryDy=0;" edge="1" parent="1" source="3" target="11">
                    <mxGeometry width="50" height="50" relative="1" as="geometry">
                        <mxPoint x="120" y="200.0033333333334" as="sourcePoint"/>
                        <mxPoint x="240" y="306.67" as="targetPoint"/>
                    </mxGeometry>
                </mxCell>
                <mxCell id="14" value="1人で黒白交互に打つ" style="ellipse;whiteSpace=wrap;html=1;fillColor=none;" vertex="1" parent="1">
                    <mxGeometry x="480" y="295" width="140" height="70" as="geometry"/>
                </mxCell>
                <mxCell id="15" value="コンピュータと&lt;br&gt;対戦する" style="ellipse;whiteSpace=wrap;html=1;fillColor=none;" vertex="1" parent="1">
                    <mxGeometry x="490" y="515" width="140" height="70" as="geometry"/>
                </mxCell>
                <mxCell id="16" value="他のプレイヤーと&lt;br&gt;対戦する" style="ellipse;whiteSpace=wrap;html=1;fillColor=none;" vertex="1" parent="1">
                    <mxGeometry x="480" y="600" width="140" height="70" as="geometry"/>
                </mxCell>
                <mxCell id="17" value="Extends" style="endArrow=block;endSize=16;endFill=0;html=1;startArrow=none;startFill=0;exitX=0;exitY=0.5;exitDx=0;exitDy=0;entryX=1;entryY=0.5;entryDx=0;entryDy=0;" edge="1" parent="1" source="14" target="5">
                    <mxGeometry width="160" relative="1" as="geometry">
                        <mxPoint x="370" y="440" as="sourcePoint"/>
                        <mxPoint x="440" y="430" as="targetPoint"/>
                    </mxGeometry>
                </mxCell>
                <mxCell id="18" value="Extends" style="endArrow=block;endSize=16;endFill=0;html=1;startArrow=none;startFill=0;exitX=0;exitY=0;exitDx=0;exitDy=0;entryX=0.921;entryY=0.771;entryDx=0;entryDy=0;entryPerimeter=0;" edge="1" parent="1" source="15" target="5">
                    <mxGeometry width="160" relative="1" as="geometry">
                        <mxPoint x="510" y="380" as="sourcePoint"/>
                        <mxPoint x="400" y="380" as="targetPoint"/>
                    </mxGeometry>
                </mxCell>
                <mxCell id="19" value="Extends" style="endArrow=block;endSize=16;endFill=0;html=1;startArrow=none;startFill=0;exitX=0;exitY=0;exitDx=0;exitDy=0;entryX=0.771;entryY=0.943;entryDx=0;entryDy=0;entryPerimeter=0;" edge="1" parent="1" source="16" target="5">
                    <mxGeometry width="160" relative="1" as="geometry">
                        <mxPoint x="501.56252531694173" y="450.64126265847085" as="sourcePoint"/>
                        <mxPoint x="380.00000000000006" y="399.36" as="targetPoint"/>
                    </mxGeometry>
                </mxCell>
                <mxCell id="20" value="プレイヤーの&lt;br&gt;ランキングを&lt;br&gt;確認する" style="ellipse;whiteSpace=wrap;html=1;fillColor=none;" vertex="1" parent="1">
                    <mxGeometry x="220" y="460" width="140" height="70" as="geometry"/>
                </mxCell>
                <mxCell id="21" value="" style="endArrow=none;html=1;entryX=0;entryY=0;entryDx=0;entryDy=0;" edge="1" parent="1" source="3" target="20">
                    <mxGeometry width="50" height="50" relative="1" as="geometry">
                        <mxPoint x="110" y="370" as="sourcePoint"/>
                        <mxPoint x="260.5025253169417" y="440.25126265847086" as="targetPoint"/>
                    </mxGeometry>
                </mxCell>
            </root>
        </mxGraphModel>
    </diagram>
</mxfile>